<?xml version="1.0" encoding="utf-8"?>
<!-- Generator: Adobe Illustrator 27.7.0, SVG Export Plug-In . SVG Version: 6.00 Build 0)  -->
<svg version="1.1" id="Layer_1" xmlns="http://www.w3.org/2000/svg" xmlns:xlink="http://www.w3.org/1999/xlink" x="0px" y="0px"
	 viewBox="0 0 268.4 242.6" style="enable-background:new 0 0 268.4 242.6;" xml:space="preserve">
<style type="text/css">
	.st0{fill:#C52928;}
</style>
<g>
	<path class="st0" d="M213.5,79.3c-3.8-12.4-10.5-23.3-20-32.6c-9.2-8.9-19.7-15.2-31.4-18.9L134.2,0l-23.9,23.9H32.8l8.9,13
		l20.2,29.7v5.8L13,121.3l48.9,48.9v5.8l-20.1,29.1L33,217.8l15.5,0.4l22.2,0.5h39.8l23.9,23.9l27.8-27.8
		c11.8-3.7,22.3-10,31.4-18.8c9.6-9.2,16.3-20.2,20.1-32.7l42-42L213.5,79.3z M198.9,137.3c0,34.8-28.3,63.1-63.1,63.1h-0.7H70.8
		l-3.5-0.1l12.8-18.6V60.9L67.4,42.2h67.7h0.7c34.8,0,63.1,28.3,63.1,63.1V137.3z"/>
	<path class="st0" d="M167.3,105v32.3v6.1c0,19.4-15.7,35.1-35.1,35.1h0h-20.1V64h20.1h0c19.4,0,35.1,15.7,35.1,35.1V105z"/>
</g>
</svg>
