<?xml version="1.0" encoding="utf-8"?>
<!-- Generator: Adobe Illustrator 26.4.1, SVG Export Plug-In . SVG Version: 6.00 Build 0)  -->
<svg version="1.1" id="Layer_1" xmlns="http://www.w3.org/2000/svg" xmlns:xlink="http://www.w3.org/1999/xlink" x="0px" y="0px"
	 viewBox="0 0 48 48" style="enable-background:new 0 0 48 48;" xml:space="preserve">
<style type="text/css">
	.st0{fill:url(#SVGID_1_);}
	.st1{fill:url(#SVGID_00000027595444814257737260000013412431759476035258_);}
	.st2{fill:url(#SVGID_00000104670938022992765790000017438223449245764236_);}
</style>
<g>
	<g>
		
			<linearGradient id="SVGID_1_" gradientUnits="userSpaceOnUse" x1="25.2599" y1="59.5753" x2="22.2246" y2="26.8762" gradientTransform="matrix(1 0 0 -1 0 70)">
			<stop  offset="1.614687e-07" style="stop-color:#B078FF"/>
			<stop  offset="0.1348" style="stop-color:#A370FF"/>
			<stop  offset="0.4829" style="stop-color:#855DFE"/>
			<stop  offset="0.7834" style="stop-color:#7352FE"/>
			<stop  offset="1" style="stop-color:#6D4EFE"/>
		</linearGradient>
		<path class="st0" d="M40.2,26.9L25.1,46c-0.5,0.7-1.6,0.7-2.1,0L7.8,26.8c-1.3-1.7-1.3-4,0-5.7L22.9,2c0.5-0.7,1.6-0.7,2.1,0
			l15.2,19.2C41.5,22.9,41.5,25.2,40.2,26.9z"/>
		<g>
			<g>
				
					<linearGradient id="SVGID_00000164483741424090287590000004328281303612549291_" gradientUnits="userSpaceOnUse" x1="28.4611" y1="58.9062" x2="14.4398" y2="41.689" gradientTransform="matrix(1 0 0 -1 0 70)">
					<stop  offset="1.614687e-07" style="stop-color:#85F8E6"/>
					<stop  offset="1.620000e-02" style="stop-color:#84F7E6"/>
					<stop  offset="0.4121" style="stop-color:#66DDED"/>
					<stop  offset="0.7538" style="stop-color:#54CDF1"/>
					<stop  offset="1" style="stop-color:#4EC7F3"/>
				</linearGradient>
				<path style="fill:url(#SVGID_00000164483741424090287590000004328281303612549291_);" d="M12.1,23.5c0-0.7,0.2-1.4,0.6-2
					c0.9-1.4,1.9-2.7,2.9-4c0.8-1,1.6-2,2.3-3c1.7-2.2,3.5-4.4,5.3-6.6c0.4-0.4,0.8-0.4,1.1,0c0.6,0.8,1.3,1.6,1.9,2.5
					c0.2,0.2,0.4,0.4,0.5,0.7c0.2,0.5,0.1,1-0.2,1.4c-0.5,0.5-0.9,1.1-1.4,1.6c-0.6,0.7-1.2,1.4-1.7,2.1c-0.9,1.1-1.8,2.2-2.8,3.3
					c-0.6,0.7-1,1.4-1.2,2.3c-0.1,0.5-0.2,1-0.1,1.5c0.1,0.7,0.5,1.2,1,1.6c0.5,0.4,1.1,0.7,1.8,0.9c0.2,0.1,0.4,0.1,0.6,0.3
					c0.4,0.3,0.4,0.8,0.2,1.2c-0.2,0.4-0.4,0.7-0.7,1c-1,1.3-2.1,2.5-3.3,3.6c-0.4,0.4-1,0.4-1.4-0.1c-1-1-1.8-2-2.7-3.1
					c-0.8-1-1.6-2.1-2.2-3.2C12.3,25,12.1,24.2,12.1,23.5z"/>
				
					<linearGradient id="SVGID_00000089565262809935461270000014270884665415678902_" gradientUnits="userSpaceOnUse" x1="34.6434" y1="53.0989" x2="19.4698" y2="30.6143" gradientTransform="matrix(1 0 0 -1 0 70)">
					<stop  offset="1.614687e-07" style="stop-color:#85F8E6"/>
					<stop  offset="1.620000e-02" style="stop-color:#84F7E6"/>
					<stop  offset="0.4121" style="stop-color:#66DDED"/>
					<stop  offset="0.7538" style="stop-color:#54CDF1"/>
					<stop  offset="1" style="stop-color:#4EC7F3"/>
				</linearGradient>
				<path style="fill:url(#SVGID_00000089565262809935461270000014270884665415678902_);" d="M35.9,24.5c0,0.7-0.2,1.4-0.6,2
					c-0.9,1.4-1.9,2.7-2.9,4c-0.8,1-1.6,2-2.3,3c-1.7,2.2-3.5,4.4-5.3,6.6c-0.4,0.4-0.8,0.4-1.1,0c-0.6-0.8-1.3-1.6-1.9-2.5
					c-0.2-0.2-0.4-0.4-0.5-0.7c-0.2-0.5-0.1-1,0.2-1.4c0.5-0.5,0.9-1.1,1.4-1.6c0.6-0.7,1.2-1.4,1.7-2.1c0.9-1.1,1.8-2.2,2.8-3.3
					c0.6-0.7,1-1.4,1.2-2.3c0.1-0.5,0.2-1,0.1-1.5c-0.1-0.7-0.5-1.2-1-1.6c-0.5-0.4-1.1-0.7-1.8-0.9c-0.2-0.1-0.4-0.1-0.6-0.3
					c-0.4-0.3-0.4-0.8-0.2-1.2c0.2-0.4,0.4-0.7,0.7-1c1-1.3,2.1-2.5,3.3-3.6c0.4-0.4,1-0.4,1.4,0.1c1,1,1.8,2,2.7,3.1
					c0.8,1,1.6,2.1,2.2,3.2C35.7,23,35.9,23.8,35.9,24.5z"/>
			</g>
		</g>
	</g>
</g>
</svg>
